<mxfile host="app.diagrams.net" modified="2020-09-28T12:28:29.196Z" agent="5.0 (Windows NT 10.0; Win64; x64) AppleWebKit/537.36 (KHTML, like Gecko) Chrome/86.0.4240.42 Safari/537.36 Edg/86.0.622.19" etag="tKHX1to6ZSsdYtJtf4VW" version="13.7.3" type="github">
  <diagram id="00Cz8Mj2DJ0iy6v65t5g" name="Page-1">
    <mxGraphModel dx="1422" dy="794" grid="1" gridSize="10" guides="1" tooltips="1" connect="1" arrows="1" fold="1" page="1" pageScale="1" pageWidth="827" pageHeight="1169" math="0" shadow="0">
      <root>
        <mxCell id="0" />
        <mxCell id="1" parent="0" />
        <mxCell id="Zy5ZLBzedhmBDD1CYLZH-1" value="BOQ&lt;br&gt;a128boqcidb" style="whiteSpace=wrap;html=1;aspect=fixed;" vertex="1" parent="1">
          <mxGeometry x="500" y="220" width="170" height="170" as="geometry" />
        </mxCell>
        <mxCell id="Zy5ZLBzedhmBDD1CYLZH-2" value="Actor" style="shape=umlActor;verticalLabelPosition=bottom;verticalAlign=top;html=1;outlineConnect=0;" vertex="1" parent="1">
          <mxGeometry x="80" y="210" width="30" height="60" as="geometry" />
        </mxCell>
        <mxCell id="Zy5ZLBzedhmBDD1CYLZH-3" value="" style="endArrow=classic;html=1;entryX=0;entryY=0.5;entryDx=0;entryDy=0;" edge="1" parent="1" source="Zy5ZLBzedhmBDD1CYLZH-2" target="Zy5ZLBzedhmBDD1CYLZH-1">
          <mxGeometry width="50" height="50" relative="1" as="geometry">
            <mxPoint x="110" y="220" as="sourcePoint" />
            <mxPoint x="160" y="170" as="targetPoint" />
          </mxGeometry>
        </mxCell>
        <mxCell id="Zy5ZLBzedhmBDD1CYLZH-4" value="6400&lt;br&gt;8080" style="edgeLabel;html=1;align=center;verticalAlign=middle;resizable=0;points=[];" vertex="1" connectable="0" parent="Zy5ZLBzedhmBDD1CYLZH-3">
          <mxGeometry x="-0.0728" y="-4" relative="1" as="geometry">
            <mxPoint as="offset" />
          </mxGeometry>
        </mxCell>
        <mxCell id="Zy5ZLBzedhmBDD1CYLZH-5" value="Load Balancer" style="triangle;whiteSpace=wrap;html=1;" vertex="1" parent="1">
          <mxGeometry x="290" y="440" width="60" height="80" as="geometry" />
        </mxCell>
        <mxCell id="Zy5ZLBzedhmBDD1CYLZH-7" value="https://d2som2boq&lt;br&gt;443 &amp;gt;&amp;gt; 8080&lt;br&gt;6400 &amp;gt;&amp;gt; 6400" style="text;html=1;strokeColor=none;fillColor=none;align=center;verticalAlign=middle;whiteSpace=wrap;rounded=0;" vertex="1" parent="1">
          <mxGeometry x="210" y="540" width="190" height="20" as="geometry" />
        </mxCell>
        <mxCell id="Zy5ZLBzedhmBDD1CYLZH-9" value="" style="curved=1;endArrow=classic;html=1;exitX=1;exitY=0.5;exitDx=0;exitDy=0;entryX=-0.018;entryY=0.559;entryDx=0;entryDy=0;entryPerimeter=0;" edge="1" parent="1" source="Zy5ZLBzedhmBDD1CYLZH-5" target="Zy5ZLBzedhmBDD1CYLZH-1">
          <mxGeometry width="50" height="50" relative="1" as="geometry">
            <mxPoint x="390" y="380" as="sourcePoint" />
            <mxPoint x="440" y="330" as="targetPoint" />
            <Array as="points">
              <mxPoint x="440" y="380" />
              <mxPoint x="390" y="330" />
            </Array>
          </mxGeometry>
        </mxCell>
        <mxCell id="Zy5ZLBzedhmBDD1CYLZH-10" value="" style="curved=1;endArrow=classic;html=1;entryX=0.017;entryY=0.588;entryDx=0;entryDy=0;entryPerimeter=0;" edge="1" parent="1" source="Zy5ZLBzedhmBDD1CYLZH-2" target="Zy5ZLBzedhmBDD1CYLZH-5">
          <mxGeometry width="50" height="50" relative="1" as="geometry">
            <mxPoint x="90" y="430" as="sourcePoint" />
            <mxPoint x="140" y="380" as="targetPoint" />
            <Array as="points">
              <mxPoint x="140" y="430" />
              <mxPoint x="90" y="380" />
            </Array>
          </mxGeometry>
        </mxCell>
      </root>
    </mxGraphModel>
  </diagram>
</mxfile>
